<svg width="233" height="132" viewBox="0 0 233 132" fill="none" xmlns="http://www.w3.org/2000/svg">
<g filter="url(#filter0_dddd_691_727)">
<rect x="36" y="26" width="161" height="60" rx="20" fill="#282828" fill-opacity="0.6"/>
<rect x="36.5" y="26.5" width="160" height="59" rx="19.5" stroke="#282828" stroke-opacity="0.2"/>
<path d="M88.9723 67H86.4411L91.0497 53.9091H93.9773L98.5923 67H96.0611L92.5646 56.5938H92.4624L88.9723 67ZM89.0554 61.8672H95.9588V63.772H89.0554V61.8672ZM100.214 70.6818V57.1818H102.49V58.8054H102.624C102.743 58.5668 102.912 58.3132 103.129 58.0447C103.346 57.772 103.64 57.5398 104.011 57.348C104.382 57.152 104.855 57.054 105.43 57.054C106.189 57.054 106.873 57.2479 107.482 57.6357C108.096 58.0192 108.581 58.5881 108.939 59.3423C109.302 60.0923 109.483 61.0128 109.483 62.1037C109.483 63.1818 109.306 64.098 108.952 64.8523C108.599 65.6065 108.117 66.1818 107.508 66.5781C106.898 66.9744 106.208 67.1726 105.437 67.1726C104.874 67.1726 104.407 67.0788 104.037 66.8913C103.666 66.7038 103.368 66.478 103.142 66.2138C102.92 65.9453 102.748 65.6918 102.624 65.4531H102.528V70.6818H100.214ZM102.483 62.0909C102.483 62.7259 102.573 63.282 102.752 63.7592C102.935 64.2365 103.197 64.6094 103.538 64.8778C103.883 65.142 104.301 65.2741 104.791 65.2741C105.302 65.2741 105.731 65.1378 106.076 64.8651C106.421 64.5881 106.681 64.2109 106.856 63.7337C107.035 63.2521 107.124 62.7045 107.124 62.0909C107.124 61.4815 107.037 60.9403 106.862 60.4673C106.687 59.9943 106.427 59.6236 106.082 59.3551C105.737 59.0866 105.307 58.9524 104.791 58.9524C104.297 58.9524 103.877 59.0824 103.532 59.3423C103.187 59.6023 102.925 59.9666 102.746 60.4354C102.571 60.9041 102.483 61.456 102.483 62.0909ZM111.464 70.6818V57.1818H113.74V58.8054H113.874C113.993 58.5668 114.162 58.3132 114.379 58.0447C114.596 57.772 114.89 57.5398 115.261 57.348C115.632 57.152 116.105 57.054 116.68 57.054C117.439 57.054 118.123 57.2479 118.732 57.6357C119.346 58.0192 119.831 58.5881 120.189 59.3423C120.552 60.0923 120.733 61.0128 120.733 62.1037C120.733 63.1818 120.556 64.098 120.202 64.8523C119.849 65.6065 119.367 66.1818 118.758 66.5781C118.148 66.9744 117.458 67.1726 116.687 67.1726C116.124 67.1726 115.657 67.0788 115.287 66.8913C114.916 66.7038 114.618 66.478 114.392 66.2138C114.17 65.9453 113.998 65.6918 113.874 65.4531H113.778V70.6818H111.464ZM113.733 62.0909C113.733 62.7259 113.823 63.282 114.002 63.7592C114.185 64.2365 114.447 64.6094 114.788 64.8778C115.133 65.142 115.551 65.2741 116.041 65.2741C116.552 65.2741 116.981 65.1378 117.326 64.8651C117.671 64.5881 117.931 64.2109 118.106 63.7337C118.285 63.2521 118.374 62.7045 118.374 62.0909C118.374 61.4815 118.287 60.9403 118.112 60.4673C117.937 59.9943 117.677 59.6236 117.332 59.3551C116.987 59.0866 116.557 58.9524 116.041 58.9524C115.547 58.9524 115.127 59.0824 114.782 59.3423C114.437 59.6023 114.175 59.9666 113.996 60.4354C113.821 60.9041 113.733 61.456 113.733 62.0909ZM134.939 59.777L132.83 60.0071C132.77 59.794 132.666 59.5938 132.517 59.4062C132.372 59.2188 132.176 59.0675 131.928 58.9524C131.681 58.8374 131.379 58.7798 131.021 58.7798C130.539 58.7798 130.134 58.8842 129.806 59.093C129.482 59.3018 129.323 59.5724 129.327 59.9048C129.323 60.1903 129.427 60.4226 129.64 60.6016C129.857 60.7805 130.215 60.9276 130.714 61.0426L132.389 61.4006C133.318 61.6009 134.008 61.9183 134.46 62.353C134.916 62.7876 135.146 63.3565 135.15 64.0597C135.146 64.6776 134.965 65.223 134.607 65.696C134.253 66.1648 133.761 66.5312 133.13 66.7955C132.499 67.0597 131.775 67.1918 130.957 67.1918C129.755 67.1918 128.788 66.9403 128.055 66.4375C127.322 65.9304 126.885 65.2251 126.744 64.3217L129.001 64.1044C129.103 64.5476 129.32 64.8821 129.653 65.108C129.985 65.3338 130.418 65.4467 130.95 65.4467C131.5 65.4467 131.941 65.3338 132.274 65.108C132.61 64.8821 132.779 64.603 132.779 64.2706C132.779 63.9893 132.67 63.7571 132.453 63.5739C132.24 63.3906 131.907 63.25 131.455 63.152L129.781 62.8004C128.839 62.6044 128.142 62.2741 127.691 61.8097C127.239 61.3409 127.015 60.7486 127.019 60.0327C127.015 59.4276 127.179 58.9034 127.512 58.4602C127.848 58.0128 128.315 57.6676 128.911 57.4247C129.512 57.1776 130.205 57.054 130.989 57.054C132.139 57.054 133.045 57.299 133.705 57.7891C134.37 58.2791 134.781 58.9418 134.939 59.777ZM141.961 57.1818V58.9716H136.317V57.1818H141.961ZM137.71 54.8295H140.024V64.0469C140.024 64.358 140.071 64.5966 140.165 64.7628C140.263 64.9247 140.39 65.0355 140.548 65.0952C140.706 65.1548 140.881 65.1847 141.072 65.1847C141.217 65.1847 141.349 65.174 141.469 65.1527C141.592 65.1314 141.686 65.1122 141.75 65.0952L142.14 66.9041C142.016 66.9467 141.839 66.9936 141.609 67.0447C141.383 67.0959 141.106 67.1257 140.778 67.1342C140.199 67.1513 139.677 67.0639 139.212 66.8722C138.748 66.6761 138.379 66.3736 138.106 65.9645C137.838 65.5554 137.706 65.044 137.71 64.4304V54.8295ZM148.073 67.1918C147.114 67.1918 146.283 66.9808 145.58 66.5589C144.877 66.1371 144.332 65.5469 143.944 64.7884C143.56 64.0298 143.369 63.1435 143.369 62.1293C143.369 61.1151 143.56 60.2266 143.944 59.4638C144.332 58.701 144.877 58.1087 145.58 57.6868C146.283 57.2649 147.114 57.054 148.073 57.054C149.032 57.054 149.863 57.2649 150.566 57.6868C151.269 58.1087 151.813 58.701 152.196 59.4638C152.584 60.2266 152.778 61.1151 152.778 62.1293C152.778 63.1435 152.584 64.0298 152.196 64.7884C151.813 65.5469 151.269 66.1371 150.566 66.5589C149.863 66.9808 149.032 67.1918 148.073 67.1918ZM148.086 65.3381C148.606 65.3381 149.04 65.1953 149.39 64.9098C149.739 64.62 149.999 64.2322 150.17 63.7464C150.344 63.2607 150.432 62.7195 150.432 62.1229C150.432 61.522 150.344 60.9787 150.17 60.4929C149.999 60.0028 149.739 59.6129 149.39 59.3232C149.04 59.0334 148.606 58.8885 148.086 58.8885C147.553 58.8885 147.11 59.0334 146.756 59.3232C146.407 59.6129 146.145 60.0028 145.97 60.4929C145.8 60.9787 145.714 61.522 145.714 62.1229C145.714 62.7195 145.8 63.2607 145.97 63.7464C146.145 64.2322 146.407 64.62 146.756 64.9098C147.11 65.1953 147.553 65.3381 148.086 65.3381ZM154.742 67V57.1818H156.985V58.8182H157.088C157.267 58.2514 157.573 57.8146 158.008 57.5078C158.447 57.1967 158.948 57.0412 159.51 57.0412C159.638 57.0412 159.781 57.0476 159.938 57.0604C160.1 57.0689 160.235 57.0838 160.341 57.1051V59.2337C160.243 59.1996 160.088 59.1697 159.874 59.1442C159.666 59.1143 159.463 59.0994 159.267 59.0994C158.845 59.0994 158.466 59.1911 158.129 59.3743C157.797 59.5533 157.535 59.8026 157.343 60.1222C157.151 60.4418 157.056 60.8104 157.056 61.228V67H154.742ZM165.821 67.1918C164.836 67.1918 163.986 66.9872 163.27 66.5781C162.559 66.1648 162.011 65.581 161.627 64.8267C161.244 64.0682 161.052 63.1754 161.052 62.1484C161.052 61.1385 161.244 60.2521 161.627 59.4893C162.015 58.7223 162.556 58.1257 163.251 57.6996C163.946 57.2692 164.762 57.054 165.699 57.054C166.304 57.054 166.875 57.152 167.412 57.348C167.953 57.5398 168.431 57.8381 168.844 58.2429C169.262 58.6477 169.59 59.1634 169.828 59.7898C170.067 60.4119 170.186 61.1534 170.186 62.0142V62.7237H162.139V61.1641H167.968C167.964 60.7209 167.868 60.3267 167.681 59.9815C167.493 59.6321 167.231 59.3572 166.895 59.157C166.562 58.9567 166.174 58.8565 165.731 58.8565C165.258 58.8565 164.843 58.9716 164.485 59.2017C164.127 59.4276 163.848 59.7259 163.647 60.0966C163.451 60.4631 163.351 60.8658 163.347 61.3047V62.6662C163.347 63.2372 163.451 63.7273 163.66 64.1364C163.869 64.5412 164.161 64.8523 164.536 65.0696C164.911 65.2827 165.35 65.3892 165.853 65.3892C166.189 65.3892 166.494 65.3423 166.767 65.2486C167.039 65.1506 167.276 65.0078 167.476 64.8203C167.676 64.6328 167.828 64.4006 167.93 64.1236L170.091 64.3665C169.954 64.9375 169.694 65.4361 169.311 65.8622C168.931 66.2841 168.446 66.6122 167.853 66.8466C167.261 67.0767 166.583 67.1918 165.821 67.1918Z" fill="white"/>
<g clip-path="url(#clip0_691_727)">
<path d="M73.5917 46.965C72.4967 46.965 70.8017 45.72 69.0167 45.765C66.6617 45.795 64.5017 47.13 63.2867 49.245C60.8417 53.49 62.6567 59.76 65.0417 63.21C66.2117 64.89 67.5917 66.78 69.4217 66.72C71.1767 66.645 71.8367 65.58 73.9667 65.58C76.0817 65.58 76.6817 66.72 78.5417 66.675C80.4317 66.645 81.6317 64.965 82.7867 63.27C84.1217 61.32 84.6767 59.43 84.7067 59.325C84.6617 59.31 81.0317 57.915 80.9867 53.715C80.9567 50.205 83.8517 48.525 83.9867 48.45C82.3367 46.035 79.8017 45.765 78.9167 45.705C76.6067 45.525 74.6717 46.965 73.5917 46.965ZM77.4917 43.425C78.4667 42.255 79.1117 40.62 78.9317 39C77.5367 39.06 75.8567 39.93 74.8517 41.1C73.9517 42.135 73.1717 43.8 73.3817 45.39C74.9267 45.51 76.5167 44.595 77.4917 43.425Z" fill="white"/>
</g>
<path d="M89.1818 49H86.7173V41.7273H89.2315C89.9536 41.7273 90.5739 41.8729 91.0923 42.1641C91.6132 42.4529 92.0133 42.8684 92.2926 43.4105C92.572 43.9527 92.7116 44.6013 92.7116 45.3565C92.7116 46.1141 92.5708 46.7652 92.2891 47.3097C92.0097 47.8542 91.6061 48.272 91.0781 48.5632C90.5526 48.8544 89.9205 49 89.1818 49ZM88.0348 47.8601H89.1179C89.6245 47.8601 90.0471 47.7678 90.3857 47.5831C90.7242 47.3961 90.9787 47.1179 91.1491 46.7486C91.3196 46.3769 91.4048 45.9129 91.4048 45.3565C91.4048 44.8002 91.3196 44.3385 91.1491 43.9716C90.9787 43.6023 90.7266 43.3265 90.3928 43.1442C90.0613 42.9595 89.6494 42.8672 89.157 42.8672H88.0348V47.8601ZM96.2859 49.1065C95.7532 49.1065 95.2915 48.9893 94.9009 48.755C94.5103 48.5206 94.2073 48.1927 93.9918 47.7713C93.7788 47.3499 93.6722 46.8575 93.6722 46.294C93.6722 45.7306 93.7788 45.237 93.9918 44.8132C94.2073 44.3894 94.5103 44.0604 94.9009 43.826C95.2915 43.5916 95.7532 43.4744 96.2859 43.4744C96.8185 43.4744 97.2802 43.5916 97.6708 43.826C98.0614 44.0604 98.3633 44.3894 98.5763 44.8132C98.7918 45.237 98.8995 45.7306 98.8995 46.294C98.8995 46.8575 98.7918 47.3499 98.5763 47.7713C98.3633 48.1927 98.0614 48.5206 97.6708 48.755C97.2802 48.9893 96.8185 49.1065 96.2859 49.1065ZM96.293 48.0767C96.5818 48.0767 96.8233 47.9974 97.0174 47.8388C97.2115 47.6778 97.3559 47.4624 97.4506 47.1925C97.5477 46.9226 97.5962 46.6219 97.5962 46.2905C97.5962 45.9567 97.5477 45.6548 97.4506 45.3849C97.3559 45.1127 97.2115 44.8961 97.0174 44.7351C96.8233 44.5741 96.5818 44.4936 96.293 44.4936C95.997 44.4936 95.7508 44.5741 95.5543 44.7351C95.3602 44.8961 95.2146 45.1127 95.1175 45.3849C95.0228 45.6548 94.9755 45.9567 94.9755 46.2905C94.9755 46.6219 95.0228 46.9226 95.1175 47.1925C95.2146 47.4624 95.3602 47.6778 95.5543 47.8388C95.7508 47.9974 95.997 48.0767 96.293 48.0767ZM100.96 49L99.4189 43.5455H100.729L101.688 47.3807H101.738L102.718 43.5455H104.014L104.994 47.3594H105.047L105.992 43.5455H107.306L105.761 49H104.422L103.4 45.3139H103.325L102.302 49H100.96ZM109.489 45.804V49H108.203V43.5455H109.432V44.4723H109.496C109.622 44.1669 109.822 43.9242 110.096 43.7443C110.373 43.5644 110.715 43.4744 111.123 43.4744C111.499 43.4744 111.827 43.5549 112.106 43.7159C112.388 43.8769 112.606 44.1101 112.76 44.4155C112.916 44.7209 112.993 45.0914 112.99 45.527V49H111.705V45.7259C111.705 45.3613 111.61 45.076 111.421 44.87C111.234 44.6641 110.975 44.5611 110.643 44.5611C110.418 44.5611 110.218 44.6108 110.043 44.7102C109.87 44.8073 109.734 44.9482 109.635 45.1328C109.538 45.3175 109.489 45.5412 109.489 45.804ZM115.583 41.7273V49H114.297V41.7273H115.583ZM119.284 49.1065C118.751 49.1065 118.29 48.9893 117.899 48.755C117.508 48.5206 117.205 48.1927 116.99 47.7713C116.777 47.3499 116.67 46.8575 116.67 46.294C116.67 45.7306 116.777 45.237 116.99 44.8132C117.205 44.3894 117.508 44.0604 117.899 43.826C118.29 43.5916 118.751 43.4744 119.284 43.4744C119.817 43.4744 120.278 43.5916 120.669 43.826C121.059 44.0604 121.361 44.3894 121.574 44.8132C121.79 45.237 121.898 45.7306 121.898 46.294C121.898 46.8575 121.79 47.3499 121.574 47.7713C121.361 48.1927 121.059 48.5206 120.669 48.755C120.278 48.9893 119.817 49.1065 119.284 49.1065ZM119.291 48.0767C119.58 48.0767 119.821 47.9974 120.015 47.8388C120.21 47.6778 120.354 47.4624 120.449 47.1925C120.546 46.9226 120.594 46.6219 120.594 46.2905C120.594 45.9567 120.546 45.6548 120.449 45.3849C120.354 45.1127 120.21 44.8961 120.015 44.7351C119.821 44.5741 119.58 44.4936 119.291 44.4936C118.995 44.4936 118.749 44.5741 118.552 44.7351C118.358 44.8961 118.213 45.1127 118.116 45.3849C118.021 45.6548 117.974 45.9567 117.974 46.2905C117.974 46.6219 118.021 46.9226 118.116 47.1925C118.213 47.4624 118.358 47.6778 118.552 47.8388C118.749 47.9974 118.995 48.0767 119.291 48.0767ZM124.558 49.1101C124.213 49.1101 123.901 49.0485 123.624 48.9254C123.35 48.8 123.132 48.6153 122.971 48.3714C122.812 48.1276 122.733 47.8269 122.733 47.4695C122.733 47.1617 122.79 46.9072 122.903 46.706C123.017 46.5047 123.172 46.3438 123.369 46.223C123.565 46.1023 123.786 46.0111 124.033 45.9496C124.281 45.8857 124.538 45.8395 124.803 45.8111C125.123 45.7779 125.382 45.7483 125.581 45.7223C125.78 45.6939 125.924 45.6513 126.014 45.5945C126.107 45.5353 126.153 45.4441 126.153 45.321V45.2997C126.153 45.0322 126.073 44.825 125.915 44.6783C125.756 44.5315 125.528 44.4581 125.229 44.4581C124.915 44.4581 124.665 44.5268 124.48 44.6641C124.298 44.8014 124.175 44.9635 124.111 45.1506L122.911 44.9801C123.005 44.6487 123.161 44.3717 123.379 44.1491C123.597 43.9242 123.863 43.7562 124.178 43.6449C124.493 43.5312 124.841 43.4744 125.222 43.4744C125.485 43.4744 125.747 43.5052 126.007 43.5668C126.268 43.6283 126.505 43.7301 126.721 43.8722C126.936 44.0118 127.109 44.2024 127.239 44.4439C127.372 44.6854 127.438 44.9872 127.438 45.3494V49H126.202V48.2507H126.16C126.082 48.4022 125.972 48.5443 125.83 48.6768C125.69 48.8071 125.513 48.9124 125.3 48.9929C125.09 49.071 124.842 49.1101 124.558 49.1101ZM124.892 48.1655C125.15 48.1655 125.374 48.1146 125.563 48.0128C125.753 47.9086 125.898 47.7713 126 47.6009C126.104 47.4304 126.156 47.2446 126.156 47.0433V46.4006C126.116 46.4337 126.047 46.4645 125.95 46.4929C125.856 46.5213 125.749 46.5462 125.631 46.5675C125.512 46.5888 125.395 46.6077 125.279 46.6243C125.163 46.6409 125.063 46.6551 124.977 46.6669C124.786 46.6929 124.614 46.7356 124.462 46.7947C124.311 46.8539 124.191 46.9368 124.104 47.0433C124.016 47.1475 123.972 47.2824 123.972 47.4482C123.972 47.6849 124.059 47.8636 124.232 47.9844C124.404 48.1051 124.625 48.1655 124.892 48.1655ZM130.755 49.0959C130.326 49.0959 129.943 48.9858 129.604 48.7656C129.266 48.5455 128.998 48.2259 128.802 47.8068C128.605 47.3878 128.507 46.8788 128.507 46.2798C128.507 45.6738 128.607 45.1624 128.805 44.7457C129.007 44.3267 129.278 44.0107 129.619 43.7976C129.96 43.5821 130.339 43.4744 130.759 43.4744C131.078 43.4744 131.341 43.5289 131.547 43.6378C131.753 43.7443 131.916 43.8733 132.037 44.0249C132.158 44.174 132.251 44.3149 132.317 44.4474H132.371V41.7273H133.66V49H132.396V48.1406H132.317C132.251 48.2732 132.155 48.4141 132.03 48.5632C131.904 48.71 131.739 48.8355 131.533 48.9396C131.327 49.0438 131.067 49.0959 130.755 49.0959ZM131.114 48.0412C131.386 48.0412 131.618 47.9678 131.81 47.821C132.001 47.6719 132.147 47.4647 132.246 47.1996C132.346 46.9344 132.396 46.6255 132.396 46.2727C132.396 45.92 132.346 45.6134 132.246 45.353C132.149 45.0926 132.005 44.8902 131.813 44.7457C131.624 44.6013 131.391 44.5291 131.114 44.5291C130.827 44.5291 130.588 44.6037 130.396 44.7528C130.205 44.902 130.06 45.108 129.963 45.3707C129.866 45.6335 129.817 45.9342 129.817 46.2727C129.817 46.6136 129.866 46.9179 129.963 47.1854C130.063 47.4505 130.208 47.66 130.4 47.8139C130.594 47.9654 130.832 48.0412 131.114 48.0412ZM139.889 49.1065C139.357 49.1065 138.895 48.9893 138.504 48.755C138.114 48.5206 137.811 48.1927 137.595 47.7713C137.382 47.3499 137.276 46.8575 137.276 46.294C137.276 45.7306 137.382 45.237 137.595 44.8132C137.811 44.3894 138.114 44.0604 138.504 43.826C138.895 43.5916 139.357 43.4744 139.889 43.4744C140.422 43.4744 140.884 43.5916 141.274 43.826C141.665 44.0604 141.967 44.3894 142.18 44.8132C142.395 45.237 142.503 45.7306 142.503 46.294C142.503 46.8575 142.395 47.3499 142.18 47.7713C141.967 48.1927 141.665 48.5206 141.274 48.755C140.884 48.9893 140.422 49.1065 139.889 49.1065ZM139.896 48.0767C140.185 48.0767 140.427 47.9974 140.621 47.8388C140.815 47.6778 140.959 47.4624 141.054 47.1925C141.151 46.9226 141.2 46.6219 141.2 46.2905C141.2 45.9567 141.151 45.6548 141.054 45.3849C140.959 45.1127 140.815 44.8961 140.621 44.7351C140.427 44.5741 140.185 44.4936 139.896 44.4936C139.601 44.4936 139.354 44.5741 139.158 44.7351C138.964 44.8961 138.818 45.1127 138.721 45.3849C138.626 45.6548 138.579 45.9567 138.579 46.2905C138.579 46.6219 138.626 46.9226 138.721 47.1925C138.818 47.4624 138.964 47.6778 139.158 47.8388C139.354 47.9974 139.601 48.0767 139.896 48.0767ZM144.88 45.804V49H143.594V43.5455H144.823V44.4723H144.887C145.012 44.1669 145.212 43.9242 145.487 43.7443C145.764 43.5644 146.106 43.4744 146.513 43.4744C146.89 43.4744 147.217 43.5549 147.497 43.7159C147.779 43.8769 147.996 44.1101 148.15 44.4155C148.306 44.7209 148.383 45.0914 148.381 45.527V49H147.096V45.7259C147.096 45.3613 147.001 45.076 146.811 44.87C146.624 44.6641 146.365 44.5611 146.034 44.5611C145.809 44.5611 145.609 44.6108 145.434 44.7102C145.261 44.8073 145.125 44.9482 145.025 45.1328C144.928 45.3175 144.88 45.5412 144.88 45.804ZM154.892 43.5455V44.5398H151.756V43.5455H154.892ZM152.531 42.2386H153.816V47.3594C153.816 47.5322 153.842 47.6648 153.894 47.7571C153.949 47.8471 154.02 47.9086 154.107 47.9418C154.195 47.9749 154.292 47.9915 154.398 47.9915C154.479 47.9915 154.552 47.9856 154.619 47.9737C154.687 47.9619 154.739 47.9512 154.775 47.9418L154.991 48.9467C154.923 48.9704 154.825 48.9964 154.697 49.0249C154.571 49.0533 154.417 49.0698 154.235 49.0746C153.913 49.084 153.623 49.0355 153.365 48.929C153.107 48.8201 152.902 48.652 152.751 48.4247C152.602 48.1974 152.528 47.9134 152.531 47.5724V42.2386ZM157.37 45.804V49H156.084V41.7273H157.341V44.4723H157.405C157.533 44.1645 157.731 43.9219 157.998 43.7443C158.268 43.5644 158.612 43.4744 159.028 43.4744C159.407 43.4744 159.737 43.5537 160.019 43.7124C160.301 43.871 160.519 44.103 160.672 44.4084C160.829 44.7138 160.907 45.0866 160.907 45.527V49H159.621V45.7259C159.621 45.3589 159.527 45.0736 159.337 44.87C159.15 44.6641 158.887 44.5611 158.549 44.5611C158.322 44.5611 158.118 44.6108 157.938 44.7102C157.76 44.8073 157.621 44.9482 157.519 45.1328C157.42 45.3175 157.37 45.5412 157.37 45.804ZM164.632 49.1065C164.085 49.1065 163.613 48.9929 163.215 48.7656C162.82 48.536 162.515 48.2116 162.302 47.7926C162.089 47.3712 161.983 46.8752 161.983 46.3047C161.983 45.7436 162.089 45.2512 162.302 44.8274C162.518 44.4013 162.818 44.0698 163.204 43.8331C163.59 43.594 164.044 43.4744 164.564 43.4744C164.901 43.4744 165.218 43.5289 165.516 43.6378C165.817 43.7443 166.082 43.91 166.312 44.1349C166.544 44.3598 166.726 44.6463 166.858 44.9943C166.991 45.34 167.057 45.7519 167.057 46.2301V46.6243H162.586V45.7578H165.825C165.823 45.5116 165.769 45.2926 165.665 45.1009C165.561 44.9067 165.416 44.754 165.229 44.6428C165.044 44.5315 164.828 44.4759 164.582 44.4759C164.319 44.4759 164.089 44.5398 163.89 44.6676C163.691 44.7931 163.536 44.9588 163.425 45.1648C163.316 45.3684 163.26 45.5921 163.258 45.8359V46.5923C163.258 46.9096 163.316 47.1818 163.432 47.4091C163.548 47.634 163.71 47.8068 163.918 47.9276C164.126 48.0459 164.37 48.1051 164.65 48.1051C164.837 48.1051 165.006 48.0791 165.157 48.027C165.309 47.9725 165.44 47.8932 165.552 47.7891C165.663 47.6849 165.747 47.5559 165.804 47.402L167.004 47.5369C166.928 47.8542 166.784 48.1312 166.571 48.3679C166.36 48.6023 166.09 48.7846 165.761 48.9148C165.432 49.0426 165.056 49.1065 164.632 49.1065Z" fill="white" fill-opacity="0.6"/>
</g>
<defs>
<filter id="filter0_dddd_691_727" x="0" y="0" width="233" height="132" filterUnits="userSpaceOnUse" color-interpolation-filters="sRGB">
<feFlood flood-opacity="0" result="BackgroundImageFix"/>
<feColorMatrix in="SourceAlpha" type="matrix" values="0 0 0 0 0 0 0 0 0 0 0 0 0 0 0 0 0 0 127 0" result="hardAlpha"/>
<feOffset/>
<feGaussianBlur stdDeviation="3"/>
<feComposite in2="hardAlpha" operator="out"/>
<feColorMatrix type="matrix" values="0 0 0 0 0 0 0 0 0 0.0627451 0 0 0 0 0.239216 0 0 0 0.06 0"/>
<feBlend mode="normal" in2="BackgroundImageFix" result="effect1_dropShadow_691_727"/>
<feColorMatrix in="SourceAlpha" type="matrix" values="0 0 0 0 0 0 0 0 0 0 0 0 0 0 0 0 0 0 127 0" result="hardAlpha"/>
<feOffset dy="6"/>
<feGaussianBlur stdDeviation="6"/>
<feComposite in2="hardAlpha" operator="out"/>
<feColorMatrix type="matrix" values="0 0 0 0 0 0 0 0 0 0.0627451 0 0 0 0 0.239216 0 0 0 0.06 0"/>
<feBlend mode="normal" in2="effect1_dropShadow_691_727" result="effect2_dropShadow_691_727"/>
<feColorMatrix in="SourceAlpha" type="matrix" values="0 0 0 0 0 0 0 0 0 0 0 0 0 0 0 0 0 0 127 0" result="hardAlpha"/>
<feOffset dy="6"/>
<feGaussianBlur stdDeviation="10"/>
<feComposite in2="hardAlpha" operator="out"/>
<feColorMatrix type="matrix" values="0 0 0 0 0 0 0 0 0 0.0627451 0 0 0 0 0.239216 0 0 0 0.06 0"/>
<feBlend mode="normal" in2="effect2_dropShadow_691_727" result="effect3_dropShadow_691_727"/>
<feColorMatrix in="SourceAlpha" type="matrix" values="0 0 0 0 0 0 0 0 0 0 0 0 0 0 0 0 0 0 127 0" result="hardAlpha"/>
<feOffset dy="10"/>
<feGaussianBlur stdDeviation="18"/>
<feComposite in2="hardAlpha" operator="out"/>
<feColorMatrix type="matrix" values="0 0 0 0 0 0 0 0 0 0.0627451 0 0 0 0 0.239216 0 0 0 0.08 0"/>
<feBlend mode="normal" in2="effect3_dropShadow_691_727" result="effect4_dropShadow_691_727"/>
<feBlend mode="normal" in="SourceGraphic" in2="effect4_dropShadow_691_727" result="shape"/>
</filter>
<clipPath id="clip0_691_727">
<rect width="30" height="30" fill="white" transform="translate(59 41)"/>
</clipPath>
</defs>
</svg>
