<svg width="241" height="132" viewBox="0 0 241 132" fill="none" xmlns="http://www.w3.org/2000/svg">
<g filter="url(#filter0_dddd_110_197)">
<rect x="36" y="26" width="169" height="60" rx="20" fill="#282828" fill-opacity="0.6"/>
<rect x="36.5" y="26.5" width="168" height="59" rx="19.5" stroke="#282828" stroke-opacity="0.2"/>
<path d="M55.5122 43.2675L68.2413 56L55.5135 68.733C55.2722 68.631 55.0608 68.4525 54.9194 68.2084C54.8093 68.018 54.7512 67.802 54.7512 67.582V44.4182C54.7512 43.9014 55.0649 43.4578 55.5122 43.2675ZM69.125 56.8837L72.0025 59.7613L58.3312 67.6775L69.125 56.8837ZM73.1238 52.8862L76.6326 54.9184C77.2301 55.2643 77.4341 56.029 77.0881 56.6264C76.9788 56.8154 76.8218 56.9725 76.6326 57.0819L73.1225 59.1138L70.0088 56L73.1238 52.8862ZM58.3312 44.3225L72.0038 52.2374L69.125 55.1163L58.3312 44.3225Z" fill="white"/>
<path d="M91.5895 46.0497C91.5303 45.858 91.4486 45.6863 91.3445 45.5348C91.2427 45.3809 91.1196 45.2495 90.9751 45.1406C90.8331 45.0317 90.6697 44.95 90.4851 44.8956C90.3004 44.8388 90.0992 44.8104 89.8814 44.8104C89.4908 44.8104 89.1428 44.9086 88.8374 45.1051C88.532 45.3016 88.2917 45.5904 88.1165 45.9716C87.9437 46.3504 87.8572 46.812 87.8572 47.3565C87.8572 47.9058 87.9437 48.371 88.1165 48.7521C88.2893 49.1333 88.5296 49.4233 88.8374 49.6222C89.1451 49.8187 89.5026 49.9169 89.9098 49.9169C90.2791 49.9169 90.5987 49.8459 90.8686 49.7038C91.1409 49.5618 91.3504 49.3606 91.4972 49.1001C91.6439 48.8374 91.7173 48.5296 91.7173 48.1768L92.0156 48.223H90.0412V47.1932H92.9922V48.0668C92.9922 48.6894 92.8596 49.228 92.5945 49.6825C92.3293 50.1371 91.9647 50.4875 91.5007 50.7337C91.0367 50.9775 90.504 51.0994 89.9027 51.0994C89.2327 51.0994 88.6444 50.9491 88.1378 50.6484C87.6335 50.3454 87.2393 49.9157 86.9553 49.3594C86.6735 48.8007 86.5327 48.1378 86.5327 47.3707C86.5327 46.7836 86.6155 46.2592 86.7812 45.7976C86.9493 45.3359 87.1837 44.9441 87.4844 44.6222C87.785 44.2978 88.1378 44.0516 88.5426 43.8835C88.9474 43.7131 89.3878 43.6278 89.8636 43.6278C90.2661 43.6278 90.6413 43.687 90.9893 43.8054C91.3374 43.9214 91.6463 44.0871 91.9162 44.3026C92.1884 44.518 92.4122 44.7737 92.5874 45.0696C92.7625 45.3655 92.8774 45.6922 92.9318 46.0497H91.5895ZM96.6241 51.1065C96.0772 51.1065 95.6049 50.9929 95.2072 50.7656C94.8118 50.536 94.5076 50.2116 94.2946 49.7926C94.0815 49.3712 93.975 48.8752 93.975 48.3047C93.975 47.7436 94.0815 47.2512 94.2946 46.8274C94.51 46.4013 94.8107 46.0698 95.1966 45.8331C95.5824 45.594 96.0358 45.4744 96.5566 45.4744C96.8928 45.4744 97.21 45.5289 97.5083 45.6378C97.809 45.7443 98.0742 45.91 98.3038 46.1349C98.5358 46.3598 98.7181 46.6463 98.8507 46.9943C98.9833 47.34 99.0495 47.7519 99.0495 48.2301V48.6243H94.5787V47.7578H97.8173C97.8149 47.5116 97.7617 47.2926 97.6575 47.1009C97.5533 46.9067 97.4077 46.754 97.2207 46.6428C97.036 46.5315 96.8206 46.4759 96.5744 46.4759C96.3116 46.4759 96.0808 46.5398 95.8819 46.6676C95.6831 46.7931 95.528 46.9588 95.4167 47.1648C95.3078 47.3684 95.2522 47.5921 95.2498 47.8359V48.5923C95.2498 48.9096 95.3078 49.1818 95.4238 49.4091C95.5398 49.634 95.702 49.8068 95.9103 49.9276C96.1187 50.0459 96.3625 50.1051 96.6419 50.1051C96.8289 50.1051 96.9982 50.0791 97.1497 50.027C97.3012 49.9725 97.4326 49.8932 97.5439 49.7891C97.6551 49.6849 97.7392 49.5559 97.796 49.402L98.9963 49.5369C98.9205 49.8542 98.7761 50.1312 98.563 50.3679C98.3523 50.6023 98.0824 50.7846 97.7534 50.9148C97.4243 51.0426 97.0479 51.1065 96.6241 51.1065ZM102.861 45.5455V46.5398H99.7251V45.5455H102.861ZM100.499 44.2386H101.785V49.3594C101.785 49.5322 101.811 49.6648 101.863 49.7571C101.917 49.8471 101.988 49.9086 102.076 49.9418C102.164 49.9749 102.261 49.9915 102.367 49.9915C102.448 49.9915 102.521 49.9856 102.587 49.9737C102.656 49.9619 102.708 49.9512 102.744 49.9418L102.96 50.9467C102.892 50.9704 102.793 50.9964 102.665 51.0249C102.54 51.0533 102.386 51.0698 102.204 51.0746C101.882 51.084 101.592 51.0355 101.334 50.929C101.076 50.8201 100.871 50.652 100.719 50.4247C100.57 50.1974 100.497 49.9134 100.499 49.5724V44.2386ZM106.416 51V45.5455H107.702V51H106.416ZM107.063 44.7713C106.859 44.7713 106.684 44.7038 106.537 44.5689C106.39 44.4316 106.317 44.267 106.317 44.0753C106.317 43.8812 106.39 43.7166 106.537 43.5817C106.684 43.4444 106.859 43.3757 107.063 43.3757C107.269 43.3757 107.444 43.4444 107.588 43.5817C107.735 43.7166 107.808 43.8812 107.808 44.0753C107.808 44.267 107.735 44.4316 107.588 44.5689C107.444 44.7038 107.269 44.7713 107.063 44.7713ZM111.748 45.5455V46.5398H108.612V45.5455H111.748ZM109.386 44.2386H110.672V49.3594C110.672 49.5322 110.698 49.6648 110.75 49.7571C110.804 49.8471 110.875 49.9086 110.963 49.9418C111.05 49.9749 111.147 49.9915 111.254 49.9915C111.334 49.9915 111.408 49.9856 111.474 49.9737C111.543 49.9619 111.595 49.9512 111.63 49.9418L111.847 50.9467C111.778 50.9704 111.68 50.9964 111.552 51.0249C111.427 51.0533 111.273 51.0698 111.091 51.0746C110.769 51.084 110.479 51.0355 110.221 50.929C109.962 50.8201 109.758 50.652 109.606 50.4247C109.457 50.1974 109.384 49.9134 109.386 49.5724V44.2386ZM117.682 51.1065C117.15 51.1065 116.688 50.9893 116.297 50.755C115.907 50.5206 115.604 50.1927 115.388 49.7713C115.175 49.3499 115.069 48.8575 115.069 48.294C115.069 47.7306 115.175 47.237 115.388 46.8132C115.604 46.3894 115.907 46.0604 116.297 45.826C116.688 45.5916 117.15 45.4744 117.682 45.4744C118.215 45.4744 118.677 45.5916 119.067 45.826C119.458 46.0604 119.76 46.3894 119.973 46.8132C120.188 47.237 120.296 47.7306 120.296 48.294C120.296 48.8575 120.188 49.3499 119.973 49.7713C119.76 50.1927 119.458 50.5206 119.067 50.755C118.677 50.9893 118.215 51.1065 117.682 51.1065ZM117.689 50.0767C117.978 50.0767 118.22 49.9974 118.414 49.8388C118.608 49.6778 118.752 49.4624 118.847 49.1925C118.944 48.9226 118.993 48.6219 118.993 48.2905C118.993 47.9567 118.944 47.6548 118.847 47.3849C118.752 47.1127 118.608 46.8961 118.414 46.7351C118.22 46.5741 117.978 46.4936 117.689 46.4936C117.394 46.4936 117.147 46.5741 116.951 46.7351C116.757 46.8961 116.611 47.1127 116.514 47.3849C116.419 47.6548 116.372 47.9567 116.372 48.2905C116.372 48.6219 116.419 48.9226 116.514 49.1925C116.611 49.4624 116.757 49.6778 116.951 49.8388C117.147 49.9974 117.394 50.0767 117.689 50.0767ZM122.673 47.804V51H121.387V45.5455H122.616V46.4723H122.68C122.805 46.1669 123.005 45.9242 123.28 45.7443C123.557 45.5644 123.899 45.4744 124.306 45.4744C124.683 45.4744 125.01 45.5549 125.29 45.7159C125.571 45.8769 125.789 46.1101 125.943 46.4155C126.099 46.7209 126.176 47.0914 126.174 47.527V51H124.888V47.7259C124.888 47.3613 124.794 47.076 124.604 46.87C124.417 46.6641 124.158 46.5611 123.827 46.5611C123.602 46.5611 123.402 46.6108 123.227 46.7102C123.054 46.8073 122.918 46.9482 122.818 47.1328C122.721 47.3175 122.673 47.5412 122.673 47.804Z" fill="white" fill-opacity="0.6"/>
<path d="M96.0611 58.0895C95.9545 57.7443 95.8075 57.4354 95.62 57.1626C95.4368 56.8857 95.2152 56.6491 94.9553 56.4531C94.6996 56.2571 94.4055 56.1101 94.0732 56.0121C93.7408 55.9098 93.3786 55.8587 92.9865 55.8587C92.2834 55.8587 91.657 56.0355 91.1072 56.3892C90.5575 56.7429 90.125 57.2628 89.8097 57.9489C89.4986 58.6307 89.343 59.4616 89.343 60.4418C89.343 61.4304 89.4986 62.2678 89.8097 62.9538C90.1207 63.6399 90.5533 64.1619 91.1072 64.5199C91.6612 64.8736 92.3047 65.0504 93.0376 65.0504C93.7024 65.0504 94.2777 64.9226 94.7635 64.6669C95.2536 64.4112 95.6307 64.049 95.8949 63.5803C96.1591 63.1072 96.2912 62.5533 96.2912 61.9183L96.8281 62.0014H93.2741V60.1477H98.5859V61.7202C98.5859 62.8409 98.3473 63.8104 97.87 64.6286C97.3928 65.4467 96.7365 66.0774 95.9013 66.5206C95.0661 66.9595 94.1072 67.179 93.0249 67.179C91.8189 67.179 90.7599 66.9084 89.848 66.3672C88.9403 65.8217 88.2308 65.0483 87.7195 64.0469C87.2124 63.0412 86.9588 61.848 86.9588 60.4673C86.9588 59.4105 87.108 58.4666 87.4062 57.6357C87.7088 56.8047 88.1307 56.0994 88.6719 55.5199C89.2131 54.9361 89.848 54.4929 90.5767 54.1903C91.3054 53.8835 92.098 53.7301 92.9545 53.7301C93.679 53.7301 94.3544 53.8366 94.9808 54.0497C95.6072 54.2585 96.1634 54.5568 96.6491 54.9446C97.1392 55.3324 97.5419 55.7926 97.8572 56.3253C98.1726 56.858 98.3793 57.446 98.4773 58.0895H96.0611ZM105.059 67.1918C104.101 67.1918 103.27 66.9808 102.567 66.5589C101.863 66.1371 101.318 65.5469 100.93 64.7884C100.547 64.0298 100.355 63.1435 100.355 62.1293C100.355 61.1151 100.547 60.2266 100.93 59.4638C101.318 58.701 101.863 58.1087 102.567 57.6868C103.27 57.2649 104.101 57.054 105.059 57.054C106.018 57.054 106.849 57.2649 107.552 57.6868C108.256 58.1087 108.799 58.701 109.182 59.4638C109.57 60.2266 109.764 61.1151 109.764 62.1293C109.764 63.1435 109.57 64.0298 109.182 64.7884C108.799 65.5469 108.256 66.1371 107.552 66.5589C106.849 66.9808 106.018 67.1918 105.059 67.1918ZM105.072 65.3381C105.592 65.3381 106.027 65.1953 106.376 64.9098C106.726 64.62 106.986 64.2322 107.156 63.7464C107.331 63.2607 107.418 62.7195 107.418 62.1229C107.418 61.522 107.331 60.9787 107.156 60.4929C106.986 60.0028 106.726 59.6129 106.376 59.3232C106.027 59.0334 105.592 58.8885 105.072 58.8885C104.54 58.8885 104.096 59.0334 103.743 59.3232C103.393 59.6129 103.131 60.0028 102.956 60.4929C102.786 60.9787 102.701 61.522 102.701 62.1229C102.701 62.7195 102.786 63.2607 102.956 63.7464C103.131 64.2322 103.393 64.62 103.743 64.9098C104.096 65.1953 104.54 65.3381 105.072 65.3381ZM116.011 67.1918C115.052 67.1918 114.221 66.9808 113.518 66.5589C112.815 66.1371 112.269 65.5469 111.881 64.7884C111.498 64.0298 111.306 63.1435 111.306 62.1293C111.306 61.1151 111.498 60.2266 111.881 59.4638C112.269 58.701 112.815 58.1087 113.518 57.6868C114.221 57.2649 115.052 57.054 116.011 57.054C116.969 57.054 117.8 57.2649 118.504 57.6868C119.207 58.1087 119.75 58.701 120.134 59.4638C120.521 60.2266 120.715 61.1151 120.715 62.1293C120.715 63.1435 120.521 64.0298 120.134 64.7884C119.75 65.5469 119.207 66.1371 118.504 66.5589C117.8 66.9808 116.969 67.1918 116.011 67.1918ZM116.023 65.3381C116.543 65.3381 116.978 65.1953 117.327 64.9098C117.677 64.62 117.937 64.2322 118.107 63.7464C118.282 63.2607 118.369 62.7195 118.369 62.1229C118.369 61.522 118.282 60.9787 118.107 60.4929C117.937 60.0028 117.677 59.6129 117.327 59.3232C116.978 59.0334 116.543 58.8885 116.023 58.8885C115.491 58.8885 115.048 59.0334 114.694 59.3232C114.344 59.6129 114.082 60.0028 113.908 60.4929C113.737 60.9787 113.652 61.522 113.652 62.1229C113.652 62.7195 113.737 63.2607 113.908 63.7464C114.082 64.2322 114.344 64.62 114.694 64.9098C115.048 65.1953 115.491 65.3381 116.023 65.3381ZM126.949 70.8864C126.118 70.8864 125.404 70.7734 124.808 70.5476C124.211 70.326 123.732 70.0277 123.369 69.6527C123.007 69.2777 122.756 68.8622 122.615 68.4062L124.699 67.9013C124.793 68.093 124.929 68.2827 125.108 68.4702C125.287 68.6619 125.528 68.8196 125.83 68.9432C126.137 69.071 126.523 69.1349 126.987 69.1349C127.644 69.1349 128.187 68.9751 128.617 68.6555C129.048 68.3402 129.263 67.8203 129.263 67.0959V65.2358H129.148C129.029 65.4744 128.854 65.7195 128.624 65.9709C128.398 66.2223 128.097 66.4332 127.722 66.6037C127.352 66.7741 126.885 66.8594 126.323 66.8594C125.568 66.8594 124.884 66.6825 124.271 66.3288C123.661 65.9709 123.176 65.4382 122.813 64.7308C122.455 64.0192 122.276 63.1286 122.276 62.0589C122.276 60.9808 122.455 60.071 122.813 59.3295C123.176 58.5838 123.664 58.0192 124.277 57.6357C124.891 57.2479 125.575 57.054 126.329 57.054C126.904 57.054 127.377 57.152 127.748 57.348C128.123 57.5398 128.421 57.772 128.643 58.0447C128.865 58.3132 129.033 58.5668 129.148 58.8054H129.276V57.1818H131.558V67.1598C131.558 67.9993 131.357 68.6939 130.957 69.2436C130.556 69.7933 130.009 70.2045 129.314 70.4773C128.619 70.75 127.831 70.8864 126.949 70.8864ZM126.968 65.044C127.458 65.044 127.876 64.9247 128.221 64.6861C128.566 64.4474 128.828 64.1044 129.007 63.657C129.186 63.2095 129.276 62.6726 129.276 62.0462C129.276 61.4283 129.186 60.8871 129.007 60.4226C128.833 59.9581 128.573 59.598 128.227 59.3423C127.887 59.0824 127.467 58.9524 126.968 58.9524C126.453 58.9524 126.022 59.0866 125.677 59.3551C125.332 59.6236 125.072 59.9922 124.897 60.4609C124.722 60.9254 124.635 61.4538 124.635 62.0462C124.635 62.647 124.722 63.1733 124.897 63.625C125.076 64.0724 125.338 64.4219 125.683 64.6733C126.033 64.9205 126.461 65.044 126.968 65.044ZM136.243 53.9091V67H133.929V53.9091H136.243ZM142.969 67.1918C141.985 67.1918 141.135 66.9872 140.419 66.5781C139.707 66.1648 139.159 65.581 138.776 64.8267C138.392 64.0682 138.201 63.1754 138.201 62.1484C138.201 61.1385 138.392 60.2521 138.776 59.4893C139.164 58.7223 139.705 58.1257 140.4 57.6996C141.094 57.2692 141.91 57.054 142.848 57.054C143.453 57.054 144.024 57.152 144.561 57.348C145.102 57.5398 145.579 57.8381 145.993 58.2429C146.41 58.6477 146.738 59.1634 146.977 59.7898C147.216 60.4119 147.335 61.1534 147.335 62.0142V62.7237H139.287V61.1641H145.117C145.113 60.7209 145.017 60.3267 144.829 59.9815C144.642 59.6321 144.38 59.3572 144.043 59.157C143.711 58.9567 143.323 58.8565 142.88 58.8565C142.407 58.8565 141.991 58.9716 141.633 59.2017C141.275 59.4276 140.996 59.7259 140.796 60.0966C140.6 60.4631 140.5 60.8658 140.495 61.3047V62.6662C140.495 63.2372 140.6 63.7273 140.809 64.1364C141.017 64.5412 141.309 64.8523 141.684 65.0696C142.059 65.2827 142.498 65.3892 143.001 65.3892C143.338 65.3892 143.642 65.3423 143.915 65.2486C144.188 65.1506 144.424 65.0078 144.625 64.8203C144.825 64.6328 144.976 64.4006 145.078 64.1236L147.239 64.3665C147.103 64.9375 146.843 65.4361 146.459 65.8622C146.08 66.2841 145.594 66.6122 145.002 66.8466C144.409 67.0767 143.732 67.1918 142.969 67.1918ZM153.86 67V53.9091H158.769C159.774 53.9091 160.618 54.0966 161.3 54.4716C161.986 54.8466 162.504 55.3622 162.853 56.0185C163.207 56.6705 163.384 57.4119 163.384 58.2429C163.384 59.0824 163.207 59.8281 162.853 60.4801C162.499 61.1321 161.977 61.6456 161.287 62.0206C160.597 62.3913 159.747 62.5767 158.737 62.5767H155.483V60.6271H158.417C159.005 60.6271 159.487 60.5249 159.862 60.3203C160.237 60.1158 160.514 59.8345 160.693 59.4766C160.876 59.1186 160.968 58.7074 160.968 58.2429C160.968 57.7784 160.876 57.3693 160.693 57.0156C160.514 56.6619 160.235 56.3871 159.855 56.1911C159.48 55.9908 158.997 55.8906 158.404 55.8906H156.231V67H153.86ZM167.655 53.9091V67H165.341V53.9091H167.655ZM172.86 67.1982C172.238 67.1982 171.677 67.0874 171.179 66.8658C170.684 66.6399 170.292 66.3075 170.003 65.8686C169.717 65.4297 169.574 64.8885 169.574 64.245C169.574 63.6911 169.677 63.233 169.881 62.8707C170.086 62.5085 170.365 62.2188 170.719 62.0014C171.072 61.7841 171.471 61.62 171.914 61.5092C172.361 61.3942 172.824 61.3111 173.301 61.2599C173.876 61.2003 174.343 61.147 174.701 61.1001C175.059 61.049 175.319 60.9723 175.481 60.87C175.647 60.7635 175.73 60.5994 175.73 60.3778V60.3395C175.73 59.858 175.587 59.4851 175.302 59.2209C175.016 58.9567 174.605 58.8246 174.068 58.8246C173.501 58.8246 173.052 58.9482 172.719 59.1953C172.391 59.4425 172.17 59.7344 172.055 60.071L169.894 59.7642C170.064 59.1676 170.346 58.669 170.738 58.2685C171.13 57.8636 171.609 57.5611 172.176 57.3608C172.743 57.1562 173.369 57.054 174.055 57.054C174.528 57.054 174.999 57.1094 175.468 57.2202C175.937 57.331 176.365 57.5142 176.753 57.7699C177.14 58.0213 177.452 58.3643 177.686 58.799C177.925 59.2337 178.044 59.777 178.044 60.429V67H175.819V65.6513H175.743C175.602 65.924 175.404 66.1797 175.148 66.4183C174.897 66.6527 174.579 66.8423 174.196 66.9872C173.817 67.1278 173.371 67.1982 172.86 67.1982ZM173.461 65.4979C173.925 65.4979 174.328 65.4062 174.669 65.223C175.01 65.0355 175.272 64.7884 175.455 64.4815C175.643 64.1747 175.736 63.8402 175.736 63.478V62.321C175.664 62.3807 175.54 62.4361 175.366 62.4872C175.195 62.5384 175.003 62.5831 174.79 62.6214C174.577 62.6598 174.366 62.6939 174.157 62.7237C173.949 62.7536 173.768 62.7791 173.614 62.8004C173.269 62.8473 172.96 62.924 172.687 63.0305C172.415 63.1371 172.199 63.2862 172.042 63.478C171.884 63.6655 171.805 63.9084 171.805 64.2067C171.805 64.6328 171.961 64.9545 172.272 65.1719C172.583 65.3892 172.979 65.4979 173.461 65.4979ZM181.457 70.6818C181.142 70.6818 180.85 70.6563 180.581 70.6051C180.317 70.5582 180.106 70.5028 179.949 70.4389L180.486 68.6364C180.822 68.7344 181.123 68.7813 181.387 68.777C181.651 68.7727 181.883 68.6896 182.084 68.5277C182.288 68.37 182.461 68.1058 182.601 67.7351L182.8 67.2045L179.239 57.1818H181.694L183.956 64.5966H184.059L186.328 57.1818H188.789L184.858 68.1889C184.675 68.7088 184.432 69.1541 184.129 69.5249C183.827 69.8999 183.456 70.1854 183.017 70.3814C182.582 70.5817 182.062 70.6818 181.457 70.6818Z" fill="white"/>
</g>
<defs>
<filter id="filter0_dddd_110_197" x="0" y="0" width="241" height="132" filterUnits="userSpaceOnUse" color-interpolation-filters="sRGB">
<feFlood flood-opacity="0" result="BackgroundImageFix"/>
<feColorMatrix in="SourceAlpha" type="matrix" values="0 0 0 0 0 0 0 0 0 0 0 0 0 0 0 0 0 0 127 0" result="hardAlpha"/>
<feOffset/>
<feGaussianBlur stdDeviation="3"/>
<feComposite in2="hardAlpha" operator="out"/>
<feColorMatrix type="matrix" values="0 0 0 0 0 0 0 0 0 0.0627451 0 0 0 0 0.239216 0 0 0 0.06 0"/>
<feBlend mode="normal" in2="BackgroundImageFix" result="effect1_dropShadow_110_197"/>
<feColorMatrix in="SourceAlpha" type="matrix" values="0 0 0 0 0 0 0 0 0 0 0 0 0 0 0 0 0 0 127 0" result="hardAlpha"/>
<feOffset dy="6"/>
<feGaussianBlur stdDeviation="6"/>
<feComposite in2="hardAlpha" operator="out"/>
<feColorMatrix type="matrix" values="0 0 0 0 0 0 0 0 0 0.0627451 0 0 0 0 0.239216 0 0 0 0.06 0"/>
<feBlend mode="normal" in2="effect1_dropShadow_110_197" result="effect2_dropShadow_110_197"/>
<feColorMatrix in="SourceAlpha" type="matrix" values="0 0 0 0 0 0 0 0 0 0 0 0 0 0 0 0 0 0 127 0" result="hardAlpha"/>
<feOffset dy="6"/>
<feGaussianBlur stdDeviation="10"/>
<feComposite in2="hardAlpha" operator="out"/>
<feColorMatrix type="matrix" values="0 0 0 0 0 0 0 0 0 0.0627451 0 0 0 0 0.239216 0 0 0 0.06 0"/>
<feBlend mode="normal" in2="effect2_dropShadow_110_197" result="effect3_dropShadow_110_197"/>
<feColorMatrix in="SourceAlpha" type="matrix" values="0 0 0 0 0 0 0 0 0 0 0 0 0 0 0 0 0 0 127 0" result="hardAlpha"/>
<feOffset dy="10"/>
<feGaussianBlur stdDeviation="18"/>
<feComposite in2="hardAlpha" operator="out"/>
<feColorMatrix type="matrix" values="0 0 0 0 0 0 0 0 0 0.0627451 0 0 0 0 0.239216 0 0 0 0.08 0"/>
<feBlend mode="normal" in2="effect3_dropShadow_110_197" result="effect4_dropShadow_110_197"/>
<feBlend mode="normal" in="SourceGraphic" in2="effect4_dropShadow_110_197" result="shape"/>
</filter>
</defs>
</svg>
